# Tiled2Unity generated file. Do not modify by hand.
# Wavefront file for 'OverWorldTest2_mesh_0003.obj'

# Vertices (Count = 968)
v -1 -2 0
v -2 -2 0
v -2 -1 0
v -1 -1 0
v -2 -2 0
v -3 -2 0
v -3 -1 0
v -2 -1 0
v -1 -3 0
v -2 -3 0
v -2 -2 0
v -1 -2 0
v -2 -3 0
v -3 -3 0
v -3 -2 0
v -2 -2 0
v -21 -3 0
v -22 -3 0
v -22 -2 0
v -21 -2 0
v -22 -3 0
v -23 -3 0
v -23 -2 0
v -22 -2 0
v -11 -4 0
v -12 -4 0
v -12 -3 0
v -11 -3 0
v -12 -4 0
v -13 -4 0
v -13 -3 0
v -12 -3 0
v -21 -4 0
v -22 -4 0
v -22 -3 0
v -21 -3 0
v -22 -4 0
v -23 -4 0
v -23 -3 0
v -22 -3 0
v -9 -5 0
v -10 -5 0
v -10 -4 0
v -9 -4 0
v -10 -5 0
v -11 -5 0
v -11 -4 0
v -10 -4 0
v -11 -5 0
v -12 -5 0
v -12 -4 0
v -11 -4 0
v -12 -5 0
v -13 -5 0
v -13 -4 0
v -12 -4 0
v -9 -6 0
v -10 -6 0
v -10 -5 0
v -9 -5 0
v -10 -6 0
v -11 -6 0
v -11 -5 0
v -10 -5 0
v -11 -6 0
v -12 -6 0
v -12 -5 0
v -11 -5 0
v -12 -6 0
v -13 -6 0
v -13 -5 0
v -12 -5 0
v -5 -7 0
v -6 -7 0
v -6 -6 0
v -5 -6 0
v -6 -7 0
v -7 -7 0
v -7 -6 0
v -6 -6 0
v -7 -7 0
v -8 -7 0
v -8 -6 0
v -7 -6 0
v -9 -7 0
v -10 -7 0
v -10 -6 0
v -9 -6 0
v -10 -7 0
v -11 -7 0
v -11 -6 0
v -10 -6 0
v -11 -7 0
v -12 -7 0
v -12 -6 0
v -11 -6 0
v -12 -7 0
v -13 -7 0
v -13 -6 0
v -12 -6 0
v -13 -7 0
v -14 -7 0
v -14 -6 0
v -13 -6 0
v -5 -8 0
v -6 -8 0
v -6 -7 0
v -5 -7 0
v -6 -8 0
v -7 -8 0
v -7 -7 0
v -6 -7 0
v -7 -8 0
v -8 -8 0
v -8 -7 0
v -7 -7 0
v -9 -8 0
v -10 -8 0
v -10 -7 0
v -9 -7 0
v -10 -8 0
v -11 -8 0
v -11 -7 0
v -10 -7 0
v -11 -8 0
v -12 -8 0
v -12 -7 0
v -11 -7 0
v -12 -8 0
v -13 -8 0
v -13 -7 0
v -12 -7 0
v -13 -8 0
v -14 -8 0
v -14 -7 0
v -13 -7 0
v -14 -8 0
v -15 -8 0
v -15 -7 0
v -14 -7 0
v -15 -8 0
v -16 -8 0
v -16 -7 0
v -15 -7 0
v -5 -9 0
v -6 -9 0
v -6 -8 0
v -5 -8 0
v -6 -9 0
v -7 -9 0
v -7 -8 0
v -6 -8 0
v -7 -9 0
v -8 -9 0
v -8 -8 0
v -7 -8 0
v -8 -9 0
v -9 -9 0
v -9 -8 0
v -8 -8 0
v -9 -9 0
v -10 -9 0
v -10 -8 0
v -9 -8 0
v -10 -9 0
v -11 -9 0
v -11 -8 0
v -10 -8 0
v -11 -9 0
v -12 -9 0
v -12 -8 0
v -11 -8 0
v -12 -9 0
v -13 -9 0
v -13 -8 0
v -12 -8 0
v -13 -9 0
v -14 -9 0
v -14 -8 0
v -13 -8 0
v -14 -9 0
v -15 -9 0
v -15 -8 0
v -14 -8 0
v -15 -9 0
v -16 -9 0
v -16 -8 0
v -15 -8 0
v -16 -9 0
v -17 -9 0
v -17 -8 0
v -16 -8 0
v -17 -9 0
v -18 -9 0
v -18 -8 0
v -17 -8 0
v -5 -10 0
v -6 -10 0
v -6 -9 0
v -5 -9 0
v -6 -10 0
v -7 -10 0
v -7 -9 0
v -6 -9 0
v -7 -10 0
v -8 -10 0
v -8 -9 0
v -7 -9 0
v -8 -10 0
v -9 -10 0
v -9 -9 0
v -8 -9 0
v -9 -10 0
v -10 -10 0
v -10 -9 0
v -9 -9 0
v -10 -10 0
v -11 -10 0
v -11 -9 0
v -10 -9 0
v -11 -10 0
v -12 -10 0
v -12 -9 0
v -11 -9 0
v -12 -10 0
v -13 -10 0
v -13 -9 0
v -12 -9 0
v -13 -10 0
v -14 -10 0
v -14 -9 0
v -13 -9 0
v -14 -10 0
v -15 -10 0
v -15 -9 0
v -14 -9 0
v -15 -10 0
v -16 -10 0
v -16 -9 0
v -15 -9 0
v -16 -10 0
v -17 -10 0
v -17 -9 0
v -16 -9 0
v -17 -10 0
v -18 -10 0
v -18 -9 0
v -17 -9 0
v -18 -10 0
v -19 -10 0
v -19 -9 0
v -18 -9 0
v -19 -10 0
v -20 -10 0
v -20 -9 0
v -19 -9 0
v -4 -11 0
v -5 -11 0
v -5 -10 0
v -4 -10 0
v -5 -11 0
v -6 -11 0
v -6 -10 0
v -5 -10 0
v -6 -11 0
v -7 -11 0
v -7 -10 0
v -6 -10 0
v -7 -11 0
v -8 -11 0
v -8 -10 0
v -7 -10 0
v -8 -11 0
v -9 -11 0
v -9 -10 0
v -8 -10 0
v -9 -11 0
v -10 -11 0
v -10 -10 0
v -9 -10 0
v -10 -11 0
v -11 -11 0
v -11 -10 0
v -10 -10 0
v -11 -11 0
v -12 -11 0
v -12 -10 0
v -11 -10 0
v -12 -11 0
v -13 -11 0
v -13 -10 0
v -12 -10 0
v -13 -11 0
v -14 -11 0
v -14 -10 0
v -13 -10 0
v -14 -11 0
v -15 -11 0
v -15 -10 0
v -14 -10 0
v -15 -11 0
v -16 -11 0
v -16 -10 0
v -15 -10 0
v -16 -11 0
v -17 -11 0
v -17 -10 0
v -16 -10 0
v -17 -11 0
v -18 -11 0
v -18 -10 0
v -17 -10 0
v -18 -11 0
v -19 -11 0
v -19 -10 0
v -18 -10 0
v -19 -11 0
v -20 -11 0
v -20 -10 0
v -19 -10 0
v -5 -12 0
v -6 -12 0
v -6 -11 0
v -5 -11 0
v -6 -12 0
v -7 -12 0
v -7 -11 0
v -6 -11 0
v -7 -12 0
v -8 -12 0
v -8 -11 0
v -7 -11 0
v -8 -12 0
v -9 -12 0
v -9 -11 0
v -8 -11 0
v -9 -12 0
v -10 -12 0
v -10 -11 0
v -9 -11 0
v -10 -12 0
v -11 -12 0
v -11 -11 0
v -10 -11 0
v -11 -12 0
v -12 -12 0
v -12 -11 0
v -11 -11 0
v -12 -12 0
v -13 -12 0
v -13 -11 0
v -12 -11 0
v -13 -12 0
v -14 -12 0
v -14 -11 0
v -13 -11 0
v -14 -12 0
v -15 -12 0
v -15 -11 0
v -14 -11 0
v -15 -12 0
v -16 -12 0
v -16 -11 0
v -15 -11 0
v -16 -12 0
v -17 -12 0
v -17 -11 0
v -16 -11 0
v -17 -12 0
v -18 -12 0
v -18 -11 0
v -17 -11 0
v -18 -12 0
v -19 -12 0
v -19 -11 0
v -18 -11 0
v -19 -12 0
v -20 -12 0
v -20 -11 0
v -19 -11 0
v -5 -13 0
v -6 -13 0
v -6 -12 0
v -5 -12 0
v -6 -13 0
v -7 -13 0
v -7 -12 0
v -6 -12 0
v -7 -13 0
v -8 -13 0
v -8 -12 0
v -7 -12 0
v -8 -13 0
v -9 -13 0
v -9 -12 0
v -8 -12 0
v -9 -13 0
v -10 -13 0
v -10 -12 0
v -9 -12 0
v -10 -13 0
v -11 -13 0
v -11 -12 0
v -10 -12 0
v -11 -13 0
v -12 -13 0
v -12 -12 0
v -11 -12 0
v -12 -13 0
v -13 -13 0
v -13 -12 0
v -12 -12 0
v -13 -13 0
v -14 -13 0
v -14 -12 0
v -13 -12 0
v -14 -13 0
v -15 -13 0
v -15 -12 0
v -14 -12 0
v -15 -13 0
v -16 -13 0
v -16 -12 0
v -15 -12 0
v -16 -13 0
v -17 -13 0
v -17 -12 0
v -16 -12 0
v -17 -13 0
v -18 -13 0
v -18 -12 0
v -17 -12 0
v -18 -13 0
v -19 -13 0
v -19 -12 0
v -18 -12 0
v -19 -13 0
v -20 -13 0
v -20 -12 0
v -19 -12 0
v -5 -14 0
v -6 -14 0
v -6 -13 0
v -5 -13 0
v -6 -14 0
v -7 -14 0
v -7 -13 0
v -6 -13 0
v -7 -14 0
v -8 -14 0
v -8 -13 0
v -7 -13 0
v -8 -14 0
v -9 -14 0
v -9 -13 0
v -8 -13 0
v -9 -14 0
v -10 -14 0
v -10 -13 0
v -9 -13 0
v -10 -14 0
v -11 -14 0
v -11 -13 0
v -10 -13 0
v -11 -14 0
v -12 -14 0
v -12 -13 0
v -11 -13 0
v -12 -14 0
v -13 -14 0
v -13 -13 0
v -12 -13 0
v -13 -14 0
v -14 -14 0
v -14 -13 0
v -13 -13 0
v -14 -14 0
v -15 -14 0
v -15 -13 0
v -14 -13 0
v -15 -14 0
v -16 -14 0
v -16 -13 0
v -15 -13 0
v -16 -14 0
v -17 -14 0
v -17 -13 0
v -16 -13 0
v -17 -14 0
v -18 -14 0
v -18 -13 0
v -17 -13 0
v -18 -14 0
v -19 -14 0
v -19 -13 0
v -18 -13 0
v -19 -14 0
v -20 -14 0
v -20 -13 0
v -19 -13 0
v -5 -15 0
v -6 -15 0
v -6 -14 0
v -5 -14 0
v -6 -15 0
v -7 -15 0
v -7 -14 0
v -6 -14 0
v -7 -15 0
v -8 -15 0
v -8 -14 0
v -7 -14 0
v -8 -15 0
v -9 -15 0
v -9 -14 0
v -8 -14 0
v -9 -15 0
v -10 -15 0
v -10 -14 0
v -9 -14 0
v -10 -15 0
v -11 -15 0
v -11 -14 0
v -10 -14 0
v -11 -15 0
v -12 -15 0
v -12 -14 0
v -11 -14 0
v -12 -15 0
v -13 -15 0
v -13 -14 0
v -12 -14 0
v -13 -15 0
v -14 -15 0
v -14 -14 0
v -13 -14 0
v -14 -15 0
v -15 -15 0
v -15 -14 0
v -14 -14 0
v -15 -15 0
v -16 -15 0
v -16 -14 0
v -15 -14 0
v -16 -15 0
v -17 -15 0
v -17 -14 0
v -16 -14 0
v -17 -15 0
v -18 -15 0
v -18 -14 0
v -17 -14 0
v -18 -15 0
v -19 -15 0
v -19 -14 0
v -18 -14 0
v -19 -15 0
v -20 -15 0
v -20 -14 0
v -19 -14 0
v -2 -16 0
v -3 -16 0
v -3 -15 0
v -2 -15 0
v -2 -17 0
v -3 -17 0
v -3 -16 0
v -2 -16 0
v -3 -17 0
v -4 -17 0
v -4 -16 0
v -3 -16 0
v -19 -17 0
v -20 -17 0
v -20 -16 0
v -19 -16 0
v -20 -17 0
v -21 -17 0
v -21 -16 0
v -20 -16 0
v -21 -17 0
v -22 -17 0
v -22 -16 0
v -21 -16 0
v -1 -18 0
v -2 -18 0
v -2 -17 0
v -1 -17 0
v -2 -18 0
v -3 -18 0
v -3 -17 0
v -2 -17 0
v -3 -18 0
v -4 -18 0
v -4 -17 0
v -3 -17 0
v -4 -18 0
v -5 -18 0
v -5 -17 0
v -4 -17 0
v -11 -18 0
v -12 -18 0
v -12 -17 0
v -11 -17 0
v -12 -18 0
v -13 -18 0
v -13 -17 0
v -12 -17 0
v -13 -18 0
v -14 -18 0
v -14 -17 0
v -13 -17 0
v -19 -18 0
v -20 -18 0
v -20 -17 0
v -19 -17 0
v -20 -18 0
v -21 -18 0
v -21 -17 0
v -20 -17 0
v -21 -18 0
v -22 -18 0
v -22 -17 0
v -21 -17 0
v -1 -19 0
v -2 -19 0
v -2 -18 0
v -1 -18 0
v -2 -19 0
v -3 -19 0
v -3 -18 0
v -2 -18 0
v -3 -19 0
v -4 -19 0
v -4 -18 0
v -3 -18 0
v -4 -19 0
v -5 -19 0
v -5 -18 0
v -4 -18 0
v -7 -19 0
v -8 -19 0
v -8 -18 0
v -7 -18 0
v -8 -19 0
v -9 -19 0
v -9 -18 0
v -8 -18 0
v -11 -19 0
v -12 -19 0
v -12 -18 0
v -11 -18 0
v -12 -19 0
v -13 -19 0
v -13 -18 0
v -12 -18 0
v -13 -19 0
v -14 -19 0
v -14 -18 0
v -13 -18 0
v -19 -19 0
v -20 -19 0
v -20 -18 0
v -19 -18 0
v -20 -19 0
v -21 -19 0
v -21 -18 0
v -20 -18 0
v -21 -19 0
v -22 -19 0
v -22 -18 0
v -21 -18 0
v -23 -19 0
v -24 -19 0
v -24 -18 0
v -23 -18 0
v -2 -20 0
v -3 -20 0
v -3 -19 0
v -2 -19 0
v -3 -20 0
v -4 -20 0
v -4 -19 0
v -3 -19 0
v -4 -20 0
v -5 -20 0
v -5 -19 0
v -4 -19 0
v -5 -20 0
v -6 -20 0
v -6 -19 0
v -5 -19 0
v -7 -20 0
v -8 -20 0
v -8 -19 0
v -7 -19 0
v -8 -20 0
v -9 -20 0
v -9 -19 0
v -8 -19 0
v -12 -20 0
v -13 -20 0
v -13 -19 0
v -12 -19 0
v -13 -20 0
v -14 -20 0
v -14 -19 0
v -13 -19 0
v -18 -20 0
v -19 -20 0
v -19 -19 0
v -18 -19 0
v -19 -20 0
v -20 -20 0
v -20 -19 0
v -19 -19 0
v -20 -20 0
v -21 -20 0
v -21 -19 0
v -20 -19 0
v -21 -20 0
v -22 -20 0
v -22 -19 0
v -21 -19 0
v -22 -20 0
v -23 -20 0
v -23 -19 0
v -22 -19 0
v -23 -20 0
v -24 -20 0
v -24 -19 0
v -23 -19 0
v -3 -21 0
v -4 -21 0
v -4 -20 0
v -3 -20 0
v -4 -21 0
v -5 -21 0
v -5 -20 0
v -4 -20 0
v -5 -21 0
v -6 -21 0
v -6 -20 0
v -5 -20 0
v -11 -21 0
v -12 -21 0
v -12 -20 0
v -11 -20 0
v -12 -21 0
v -13 -21 0
v -13 -20 0
v -12 -20 0
v -13 -21 0
v -14 -21 0
v -14 -20 0
v -13 -20 0
v -16 -21 0
v -17 -21 0
v -17 -20 0
v -16 -20 0
v -17 -21 0
v -18 -21 0
v -18 -20 0
v -17 -20 0
v -18 -21 0
v -19 -21 0
v -19 -20 0
v -18 -20 0
v -19 -21 0
v -20 -21 0
v -20 -20 0
v -19 -20 0
v -20 -21 0
v -21 -21 0
v -21 -20 0
v -20 -20 0
v -21 -21 0
v -22 -21 0
v -22 -20 0
v -21 -20 0
v -22 -21 0
v -23 -21 0
v -23 -20 0
v -22 -20 0
v -23 -21 0
v -24 -21 0
v -24 -20 0
v -23 -20 0
v -4 -22 0
v -5 -22 0
v -5 -21 0
v -4 -21 0
v -5 -22 0
v -6 -22 0
v -6 -21 0
v -5 -21 0
v -6 -22 0
v -7 -22 0
v -7 -21 0
v -6 -21 0
v -7 -22 0
v -8 -22 0
v -8 -21 0
v -7 -21 0
v -8 -22 0
v -9 -22 0
v -9 -21 0
v -8 -21 0
v -15 -22 0
v -16 -22 0
v -16 -21 0
v -15 -21 0
v -16 -22 0
v -17 -22 0
v -17 -21 0
v -16 -21 0
v -17 -22 0
v -18 -22 0
v -18 -21 0
v -17 -21 0
v -18 -22 0
v -19 -22 0
v -19 -21 0
v -18 -21 0
v -19 -22 0
v -20 -22 0
v -20 -21 0
v -19 -21 0
v -20 -22 0
v -21 -22 0
v -21 -21 0
v -20 -21 0
v -21 -22 0
v -22 -22 0
v -22 -21 0
v -21 -21 0
v -22 -22 0
v -23 -22 0
v -23 -21 0
v -22 -21 0
v -23 -22 0
v -24 -22 0
v -24 -21 0
v -23 -21 0
v -4 -23 0
v -5 -23 0
v -5 -22 0
v -4 -22 0
v -5 -23 0
v -6 -23 0
v -6 -22 0
v -5 -22 0
v -6 -23 0
v -7 -23 0
v -7 -22 0
v -6 -22 0
v -7 -23 0
v -8 -23 0
v -8 -22 0
v -7 -22 0
v -8 -23 0
v -9 -23 0
v -9 -22 0
v -8 -22 0
v -9 -23 0
v -10 -23 0
v -10 -22 0
v -9 -22 0
v -10 -23 0
v -11 -23 0
v -11 -22 0
v -10 -22 0
v -11 -23 0
v -12 -23 0
v -12 -22 0
v -11 -22 0
v -12 -23 0
v -13 -23 0
v -13 -22 0
v -12 -22 0
v -13 -23 0
v -14 -23 0
v -14 -22 0
v -13 -22 0
v -14 -23 0
v -15 -23 0
v -15 -22 0
v -14 -22 0
v -15 -23 0
v -16 -23 0
v -16 -22 0
v -15 -22 0
v -16 -23 0
v -17 -23 0
v -17 -22 0
v -16 -22 0
v -17 -23 0
v -18 -23 0
v -18 -22 0
v -17 -22 0
v -18 -23 0
v -19 -23 0
v -19 -22 0
v -18 -22 0
v -19 -23 0
v -20 -23 0
v -20 -22 0
v -19 -22 0
v -20 -23 0
v -21 -23 0
v -21 -22 0
v -20 -22 0
v -21 -23 0
v -22 -23 0
v -22 -22 0
v -21 -22 0
v -22 -23 0
v -23 -23 0
v -23 -22 0
v -22 -22 0
v -8 -24 0
v -9 -24 0
v -9 -23 0
v -8 -23 0
v -9 -24 0
v -10 -24 0
v -10 -23 0
v -9 -23 0
v -10 -24 0
v -11 -24 0
v -11 -23 0
v -10 -23 0
v -11 -24 0
v -12 -24 0
v -12 -23 0
v -11 -23 0
v -12 -24 0
v -13 -24 0
v -13 -23 0
v -12 -23 0
v -13 -24 0
v -14 -24 0
v -14 -23 0
v -13 -23 0
v -14 -24 0
v -15 -24 0
v -15 -23 0
v -14 -23 0
v -15 -24 0
v -16 -24 0
v -16 -23 0
v -15 -23 0
v -16 -24 0
v -17 -24 0
v -17 -23 0
v -16 -23 0
v -19 -24 0
v -20 -24 0
v -20 -23 0
v -19 -23 0
v -20 -24 0
v -21 -24 0
v -21 -23 0
v -20 -23 0
v -21 -24 0
v -22 -24 0
v -22 -23 0
v -21 -23 0

# Texture cooridinates (Count = 143)
vt 0.1 0.9444444
vt 0.125 0.9444444
vt 0.125 0.9722222
vt 0.1 0.9722222
vt 0.15 0.9444444
vt 0.15 0.9722222
vt 0.1 0.9166667
vt 0.125 0.9166667
vt 0.15 0.9166667
vt 0.775 0.8888889
vt 0.8 0.8888889
vt 0.8 0.9166667
vt 0.775 0.9166667
vt 0.825 0.8888889
vt 0.825 0.9166667
vt 0.625 0.6388889
vt 0.65 0.6388889
vt 0.65 0.6666666
vt 0.625 0.6666666
vt 0.675 0.6388889
vt 0.675 0.6666666
vt 0.775 0.8611111
vt 0.8 0.8611111
vt 0.825 0.8611111
vt 0.575 0.6111111
vt 0.6 0.6111111
vt 0.6 0.6388889
vt 0.575 0.6388889
vt 0.625 0.6111111
vt 0.65 0.6111111
vt 0.675 0.6111111
vt 0.575 0.5833334
vt 0.6 0.5833334
vt 0.625 0.5833334
vt 0.65 0.5833334
vt 0.675 0.5833334
vt 0.575 0.5555556
vt 0.6 0.5555556
vt 0.625 0.5555556
vt 0.4 0.3888889
vt 0.425 0.3888889
vt 0.425 0.4166667
vt 0.4 0.4166667
vt 0.45 0.4166667
vt 0.475 0.4166667
vt 0.475 0.4444444
vt 0.45 0.4444444
vt 0.5 0.4166667
vt 0.525 0.4166667
vt 0.525 0.4444444
vt 0.5 0.4444444
vt 0.225 0.8333333
vt 0.25 0.8333333
vt 0.25 0.8611111
vt 0.225 0.8611111
vt 0.55 0.4166667
vt 0.55 0.4444444
vt 0.525 0.3888889
vt 0.55 0.3888889
vt 0.75 0.9722222
vt 0.775 0.9722222
vt 0.775 1
vt 0.75 1
vt 0.8 0.9722222
vt 0.8 1
vt 0.775 0.9444444
vt 0.8 0.9444444
vt 0.45 0.3888889
vt 0.475 0.3888889
vt 0.4 0.3611111
vt 0.425 0.3611111
vt 0.5 0.3888889
vt 0.05 0.1388889
vt 0.075 0.1388889
vt 0.075 0.1666667
vt 0.05 0.1666667
vt 0.025 0.1388889
vt 0.025 0.1666667
vt 0.7 0.8611111
vt 0.725 0.8611111
vt 0.725 0.8888889
vt 0.7 0.8888889
vt 0.75 0.8611111
vt 0.75 0.8888889
vt 0.875 0.8333333
vt 0.9 0.8333333
vt 0.9 0.8611111
vt 0.875 0.8611111
vt 0.975 0.8333333
vt 1 0.8333333
vt 1 0.8611111
vt 0.975 0.8611111
vt 0.925 0.8333333
vt 0.925 0.8611111
vt 0.7 0.8333333
vt 0.725 0.8333333
vt 0.75 0.8333333
vt 0.775 0.8333333
vt 0.075 0.6666666
vt 0.1 0.6666666
vt 0.1 0.6944444
vt 0.075 0.6944444
vt 0.05 0.6388889
vt 0.075 0.6388889
vt 0.05 0.6666666
vt 0.175 0.6666666
vt 0.2 0.6666666
vt 0.2 0.6944444
vt 0.175 0.6944444
vt 0 0.75
vt 0.025 0.75
vt 0.025 0.7777778
vt 0 0.7777778
vt 0.675 0.8611111
vt 0.675 0.8888889
vt 0.05 0.75
vt 0.05 0.7777778
vt 0.65 0.7222222
vt 0.675 0.7222222
vt 0.675 0.75
vt 0.65 0.75
vt 0.675 0.8333333
vt 0.1 0.6388889
vt 0.625 0.6944444
vt 0.65 0.6944444
vt 0.625 0.7222222
vt 0.675 0.6944444
vt 0.7 0.6944444
vt 0.7 0.7222222
vt 0.675 0.8055556
vt 0.7 0.8055556
vt 0.675 0.7777778
vt 0.7 0.7777778
vt 0.075 0.02777779
vt 0.1 0.02777779
vt 0.1 0.05555558
vt 0.075 0.05555558
vt 0.725 0.7777778
vt 0.725 0.8055556
vt 0.75 0.7777778
vt 0.75 0.8055556
vt 0.775 0.7777778
vt 0.775 0.8055556

# Normal
vn 0 0 -1

# Mesh description
g OverWorldTest2_mesh_0003

# Faces
f 1/1/1 2/2/1 3/3/1 4/4/1
f 5/2/1 6/5/1 7/6/1 8/3/1
f 9/7/1 10/8/1 11/2/1 12/1/1
f 13/8/1 14/9/1 15/5/1 16/2/1
f 17/10/1 18/11/1 19/12/1 20/13/1
f 21/11/1 22/14/1 23/15/1 24/12/1
f 25/16/1 26/17/1 27/18/1 28/19/1
f 29/17/1 30/20/1 31/21/1 32/18/1
f 33/22/1 34/23/1 35/11/1 36/10/1
f 37/23/1 38/24/1 39/14/1 40/11/1
f 41/25/1 42/26/1 43/27/1 44/28/1
f 45/26/1 46/29/1 47/16/1 48/27/1
f 49/29/1 50/30/1 51/17/1 52/16/1
f 53/30/1 54/31/1 55/20/1 56/17/1
f 57/32/1 58/33/1 59/26/1 60/25/1
f 61/33/1 62/34/1 63/29/1 64/26/1
f 65/34/1 66/35/1 67/30/1 68/29/1
f 69/35/1 70/36/1 71/31/1 72/30/1
f 73/25/1 74/26/1 75/27/1 76/28/1
f 77/26/1 78/29/1 79/16/1 80/27/1
f 81/29/1 82/30/1 83/17/1 84/16/1
f 85/37/1 86/38/1 87/33/1 88/32/1
f 89/38/1 90/39/1 91/34/1 92/33/1
f 93/40/1 94/41/1 95/42/1 96/43/1
f 97/40/1 98/41/1 99/42/1 100/43/1
f 101/40/1 102/41/1 103/42/1 104/43/1
f 105/32/1 106/33/1 107/26/1 108/25/1
f 109/33/1 110/34/1 111/29/1 112/26/1
f 113/34/1 114/35/1 115/30/1 116/29/1
f 117/40/1 118/41/1 119/42/1 120/43/1
f 121/40/1 122/41/1 123/42/1 124/43/1
f 125/40/1 126/41/1 127/42/1 128/43/1
f 129/40/1 130/41/1 131/42/1 132/43/1
f 133/40/1 134/41/1 135/42/1 136/43/1
f 137/40/1 138/41/1 139/42/1 140/43/1
f 141/40/1 142/41/1 143/42/1 144/43/1
f 145/37/1 146/38/1 147/33/1 148/32/1
f 149/38/1 150/39/1 151/34/1 152/33/1
f 153/40/1 154/41/1 155/42/1 156/43/1
f 157/40/1 158/41/1 159/42/1 160/43/1
f 161/40/1 162/41/1 163/42/1 164/43/1
f 165/40/1 166/41/1 167/42/1 168/43/1
f 169/40/1 170/41/1 171/42/1 172/43/1
f 173/40/1 174/41/1 175/42/1 176/43/1
f 177/40/1 178/41/1 179/42/1 180/43/1
f 181/40/1 182/41/1 183/42/1 184/43/1
f 185/40/1 186/41/1 187/42/1 188/43/1
f 189/40/1 190/41/1 191/42/1 192/43/1
f 193/40/1 194/41/1 195/42/1 196/43/1
f 197/44/1 198/45/1 199/46/1 200/47/1
f 201/40/1 202/41/1 203/42/1 204/43/1
f 205/40/1 206/41/1 207/42/1 208/43/1
f 209/40/1 210/41/1 211/42/1 212/43/1
f 213/40/1 214/41/1 215/42/1 216/43/1
f 217/40/1 218/41/1 219/42/1 220/43/1
f 221/40/1 222/41/1 223/42/1 224/43/1
f 225/40/1 226/41/1 227/42/1 228/43/1
f 229/40/1 230/41/1 231/42/1 232/43/1
f 233/40/1 234/41/1 235/42/1 236/43/1
f 237/40/1 238/41/1 239/42/1 240/43/1
f 241/40/1 242/41/1 243/42/1 244/43/1
f 245/40/1 246/41/1 247/42/1 248/43/1
f 249/40/1 250/41/1 251/42/1 252/43/1
f 253/48/1 254/49/1 255/50/1 256/51/1
f 257/52/1 258/53/1 259/54/1 260/55/1
f 261/49/1 262/56/1 263/57/1 264/50/1
f 265/40/1 266/41/1 267/42/1 268/43/1
f 269/40/1 270/41/1 271/42/1 272/43/1
f 273/40/1 274/41/1 275/42/1 276/43/1
f 277/40/1 278/41/1 279/42/1 280/43/1
f 281/40/1 282/41/1 283/42/1 284/43/1
f 285/40/1 286/41/1 287/42/1 288/43/1
f 289/40/1 290/41/1 291/42/1 292/43/1
f 293/40/1 294/41/1 295/42/1 296/43/1
f 297/40/1 298/41/1 299/42/1 300/43/1
f 301/40/1 302/41/1 303/42/1 304/43/1
f 305/40/1 306/41/1 307/42/1 308/43/1
f 309/40/1 310/41/1 311/42/1 312/43/1
f 313/40/1 314/41/1 315/42/1 316/43/1
f 317/48/1 318/49/1 319/50/1 320/51/1
f 321/58/1 322/59/1 323/56/1 324/49/1
f 325/40/1 326/41/1 327/42/1 328/43/1
f 329/40/1 330/41/1 331/42/1 332/43/1
f 333/40/1 334/41/1 335/42/1 336/43/1
f 337/40/1 338/41/1 339/42/1 340/43/1
f 341/40/1 342/41/1 343/42/1 344/43/1
f 345/40/1 346/41/1 347/42/1 348/43/1
f 349/40/1 350/41/1 351/42/1 352/43/1
f 353/40/1 354/41/1 355/42/1 356/43/1
f 357/40/1 358/41/1 359/42/1 360/43/1
f 361/40/1 362/41/1 363/42/1 364/43/1
f 365/40/1 366/41/1 367/42/1 368/43/1
f 369/40/1 370/41/1 371/42/1 372/43/1
f 373/40/1 374/41/1 375/42/1 376/43/1
f 377/60/1 378/61/1 379/62/1 380/63/1
f 381/44/1 382/45/1 383/46/1 384/47/1
f 385/40/1 386/41/1 387/42/1 388/43/1
f 389/40/1 390/41/1 391/42/1 392/43/1
f 393/40/1 394/41/1 395/42/1 396/43/1
f 397/40/1 398/41/1 399/42/1 400/43/1
f 401/40/1 402/41/1 403/42/1 404/43/1
f 405/40/1 406/41/1 407/42/1 408/43/1
f 409/40/1 410/41/1 411/42/1 412/43/1
f 413/40/1 414/41/1 415/42/1 416/43/1
f 417/40/1 418/41/1 419/42/1 420/43/1
f 421/40/1 422/41/1 423/42/1 424/43/1
f 425/40/1 426/41/1 427/42/1 428/43/1
f 429/40/1 430/41/1 431/42/1 432/43/1
f 433/40/1 434/41/1 435/42/1 436/43/1
f 437/61/1 438/64/1 439/65/1 440/62/1
f 441/44/1 442/45/1 443/46/1 444/47/1
f 445/45/1 446/48/1 447/51/1 448/46/1
f 449/45/1 450/48/1 451/51/1 452/46/1
f 453/45/1 454/48/1 455/51/1 456/46/1
f 457/45/1 458/48/1 459/51/1 460/46/1
f 461/45/1 462/48/1 463/51/1 464/46/1
f 465/45/1 466/48/1 467/51/1 468/46/1
f 469/45/1 470/48/1 471/51/1 472/46/1
f 473/45/1 474/48/1 475/51/1 476/46/1
f 477/45/1 478/48/1 479/51/1 480/46/1
f 481/45/1 482/48/1 483/51/1 484/46/1
f 485/45/1 486/48/1 487/51/1 488/46/1
f 489/45/1 490/48/1 491/51/1 492/46/1
f 493/45/1 494/48/1 495/51/1 496/46/1
f 497/66/1 498/67/1 499/64/1 500/61/1
f 501/68/1 502/69/1 503/45/1 504/44/1
f 505/70/1 506/71/1 507/41/1 508/40/1
f 509/70/1 510/71/1 511/41/1 512/40/1
f 513/70/1 514/71/1 515/41/1 516/40/1
f 517/70/1 518/71/1 519/41/1 520/40/1
f 521/70/1 522/71/1 523/41/1 524/40/1
f 525/70/1 526/71/1 527/41/1 528/40/1
f 529/70/1 530/71/1 531/41/1 532/40/1
f 533/70/1 534/71/1 535/41/1 536/40/1
f 537/70/1 538/71/1 539/41/1 540/40/1
f 541/70/1 542/71/1 543/41/1 544/40/1
f 545/70/1 546/71/1 547/41/1 548/40/1
f 549/70/1 550/71/1 551/41/1 552/40/1
f 553/70/1 554/71/1 555/41/1 556/40/1
f 557/72/1 558/58/1 559/49/1 560/48/1
f 561/73/1 562/74/1 563/75/1 564/76/1
f 565/77/1 566/73/1 567/76/1 568/78/1
f 569/73/1 570/74/1 571/75/1 572/76/1
f 573/79/1 574/80/1 575/81/1 576/82/1
f 577/80/1 578/83/1 579/84/1 580/81/1
f 581/83/1 582/22/1 583/10/1 584/84/1
f 585/77/1 586/73/1 587/76/1 588/78/1
f 589/77/1 590/73/1 591/76/1 592/78/1
f 593/77/1 594/73/1 595/76/1 596/78/1
f 597/73/1 598/74/1 599/75/1 600/76/1
f 601/85/1 602/86/1 603/87/1 604/88/1
f 605/89/1 606/90/1 607/91/1 608/92/1
f 609/86/1 610/93/1 611/94/1 612/87/1
f 613/95/1 614/96/1 615/80/1 616/79/1
f 617/96/1 618/97/1 619/83/1 620/80/1
f 621/97/1 622/98/1 623/22/1 624/83/1
f 625/77/1 626/73/1 627/76/1 628/78/1
f 629/77/1 630/73/1 631/76/1 632/78/1
f 633/77/1 634/73/1 635/76/1 636/78/1
f 637/77/1 638/73/1 639/76/1 640/78/1
f 641/99/1 642/100/1 643/101/1 644/102/1
f 645/99/1 646/100/1 647/101/1 648/102/1
f 649/103/1 650/104/1 651/99/1 652/105/1
f 653/106/1 654/107/1 655/108/1 656/109/1
f 657/110/1 658/111/1 659/112/1 660/113/1
f 661/77/1 662/73/1 663/76/1 664/78/1
f 665/77/1 666/73/1 667/76/1 668/78/1
f 669/77/1 670/73/1 671/76/1 672/78/1
f 673/114/1 674/79/1 675/82/1 676/115/1
f 677/77/1 678/73/1 679/76/1 680/78/1
f 681/77/1 682/73/1 683/76/1 684/78/1
f 685/77/1 686/73/1 687/76/1 688/78/1
f 689/77/1 690/73/1 691/76/1 692/78/1
f 693/99/1 694/100/1 695/101/1 696/102/1
f 697/99/1 698/100/1 699/101/1 700/102/1
f 701/103/1 702/104/1 703/99/1 704/105/1
f 705/111/1 706/116/1 707/117/1 708/112/1
f 709/77/1 710/73/1 711/76/1 712/78/1
f 713/77/1 714/73/1 715/76/1 716/78/1
f 717/118/1 718/119/1 719/120/1 720/121/1
f 721/77/1 722/73/1 723/76/1 724/78/1
f 725/77/1 726/73/1 727/76/1 728/78/1
f 729/122/1 730/95/1 731/79/1 732/114/1
f 733/77/1 734/73/1 735/76/1 736/78/1
f 737/77/1 738/73/1 739/76/1 740/78/1
f 741/77/1 742/73/1 743/76/1 744/78/1
f 745/104/1 746/123/1 747/100/1 748/99/1
f 749/106/1 750/107/1 751/108/1 752/109/1
f 753/104/1 754/123/1 755/100/1 756/99/1
f 757/77/1 758/73/1 759/76/1 760/78/1
f 761/77/1 762/73/1 763/76/1 764/78/1
f 765/77/1 766/73/1 767/76/1 768/78/1
f 769/124/1 770/125/1 771/118/1 772/126/1
f 773/125/1 774/127/1 775/119/1 776/118/1
f 777/127/1 778/128/1 779/129/1 780/119/1
f 781/77/1 782/73/1 783/76/1 784/78/1
f 785/130/1 786/131/1 787/95/1 788/122/1
f 789/77/1 790/73/1 791/76/1 792/78/1
f 793/77/1 794/73/1 795/76/1 796/78/1
f 797/77/1 798/73/1 799/76/1 800/78/1
f 801/77/1 802/73/1 803/76/1 804/78/1
f 805/77/1 806/73/1 807/76/1 808/78/1
f 809/77/1 810/73/1 811/76/1 812/78/1
f 813/77/1 814/73/1 815/76/1 816/78/1
f 817/77/1 818/73/1 819/76/1 820/78/1
f 821/77/1 822/73/1 823/76/1 824/78/1
f 825/77/1 826/73/1 827/76/1 828/78/1
f 829/77/1 830/73/1 831/76/1 832/78/1
f 833/77/1 834/73/1 835/76/1 836/78/1
f 837/77/1 838/73/1 839/76/1 840/78/1
f 841/132/1 842/133/1 843/131/1 844/130/1
f 845/77/1 846/73/1 847/76/1 848/78/1
f 849/77/1 850/73/1 851/76/1 852/78/1
f 853/77/1 854/73/1 855/76/1 856/78/1
f 857/77/1 858/73/1 859/76/1 860/78/1
f 861/77/1 862/73/1 863/76/1 864/78/1
f 865/77/1 866/73/1 867/76/1 868/78/1
f 869/77/1 870/73/1 871/76/1 872/78/1
f 873/77/1 874/73/1 875/76/1 876/78/1
f 877/77/1 878/73/1 879/76/1 880/78/1
f 881/77/1 882/73/1 883/76/1 884/78/1
f 885/77/1 886/73/1 887/76/1 888/78/1
f 889/77/1 890/73/1 891/76/1 892/78/1
f 893/77/1 894/73/1 895/76/1 896/78/1
f 897/77/1 898/73/1 899/76/1 900/78/1
f 901/134/1 902/135/1 903/136/1 904/137/1
f 905/77/1 906/73/1 907/76/1 908/78/1
f 909/77/1 910/73/1 911/76/1 912/78/1
f 913/77/1 914/73/1 915/76/1 916/78/1
f 917/134/1 918/135/1 919/136/1 920/137/1
f 921/77/1 922/73/1 923/76/1 924/78/1
f 925/77/1 926/73/1 927/76/1 928/78/1
f 929/77/1 930/73/1 931/76/1 932/78/1
f 933/77/1 934/73/1 935/76/1 936/78/1
f 937/77/1 938/73/1 939/76/1 940/78/1
f 941/77/1 942/73/1 943/76/1 944/78/1
f 945/77/1 946/73/1 947/76/1 948/78/1
f 949/77/1 950/73/1 951/76/1 952/78/1
f 953/77/1 954/73/1 955/76/1 956/78/1
f 957/133/1 958/138/1 959/139/1 960/131/1
f 961/138/1 962/140/1 963/141/1 964/139/1
f 965/140/1 966/142/1 967/143/1 968/141/1

